<svg xmlns="http://www.w3.org/2000/svg" viewBox="0 0 56 56" fill="none">
  <!-- Swoosh arc from bottom-left around -->
  <path d="M8 46 C0 32 4 12 22 6" stroke="#1a5fa8" stroke-width="3.5" fill="none" stroke-linecap="round"/>
  <!-- Arrow tip at end of swoosh -->
  <path d="M18 4 L25 8 L17 12 Z" fill="#1a5fa8"/>

  <!-- Document body -->
  <path d="M14 8 L36 8 L44 16 L44 50 L14 50 Z" fill="#1a3d6e" rx="3"/>
  <!-- Folded corner -->
  <path d="M36 8 L44 16 L36 16 Z" fill="#0d2550"/>

  <!-- Doc text lines -->
  <rect x="19" y="24" width="18" height="3" rx="1.5" fill="rgba(255,255,255,0.88)"/>
  <rect x="19" y="30" width="18" height="3" rx="1.5" fill="rgba(255,255,255,0.88)"/>
  <rect x="19" y="36" width="12" height="3" rx="1.5" fill="#2dbf8a"/>
  <rect x="19" y="42" width="16" height="3" rx="1.5" fill="#2dbf8a"/>

  <!-- Circuit lines + dots (right of doc) -->
  <path d="M44 22 C50 22 50 19 54 19" stroke="#2dbf8a" stroke-width="2.2" fill="none" stroke-linecap="round"/>
  <circle cx="54" cy="19" r="2.8" fill="#2dbf8a"/>

  <path d="M44 31 L54 31" stroke="#2dbf8a" stroke-width="2.2" fill="none" stroke-linecap="round"/>
  <circle cx="54" cy="31" r="2.8" fill="#2dbf8a"/>

  <path d="M44 40 C50 40 50 43 54 43" stroke="#2dbf8a" stroke-width="2.2" fill="none" stroke-linecap="round"/>
  <circle cx="54" cy="43" r="2.8" fill="#2dbf8a"/>
</svg>
